# xmcd
#
# Track frame offsets: 
#        150
#        13114
#        30384
#        45912
#        59742
#        80317
#        93386
#        103734
#        116055
#        126362
#        138641
#        150997
#        163675
#        182475
#
# Disc length: 2605 seconds
#
# Revision: 0
# Processed by: cddbd v1.5.2PL0 Copyright (c) Steve Scherf et al.
# Submitted via: ExactAudioCopy v1.2
#
DISCID=b10a2b0e
DTITLE=Various Artist - A Closer Walk: Legendary Gospel
DYEAR=2004
DGENRE=Gospel
TTITLE0=Patsy Cline - Life's Railway to Heaven
TTITLE1=Diana Ross and The Supremes - He
TTITLE2=Willie Nelson - Tell It to Jesus
TTITLE3=Rosemary Clooney - Sweet Hour of Prayer
TTITLE4=Gladys Knight - Just a Closer Walk
TTITLE5=Bing Crosby and The Ken Darby Singers - He Leadeth Me
TTITLE6=Kitty Wells - Dust on the Bible
TTITLE7=Hank Williams - I Saw the Light
TTITLE8=Mills Brothers, The - Rock of Ages
TTITLE9=Aretha Franklin - You Grow Closer
TTITLE10=Conway Twitty - Who Will Pray for Me?
TTITLE11=McGuire Sisters, The - Bless this House
TTITLE12=Barbara Mandrell - I Will Glory in the Cross
TTITLE13=Red Foley - Amazing Grace
EXTD=
EXTT0=
EXTT1=
EXTT2=
EXTT3=
EXTT4=
EXTT5=
EXTT6=
EXTT7=
EXTT8=
EXTT9=
EXTT10=
EXTT11=
EXTT12=
EXTT13=
PLAYORDER=
